<?xml version="1.0" ?><svg contentScriptType="text/ecmascript" contentStyleType="text/css" enable-background="new 0 0 136.333 123" height="63.87699890136719px" id="Layer_1" preserveAspectRatio="xMidYMid meet" version="1.0" viewBox="19.016998291015625 31.537004470825195 63.87699890136719 63.87699890136719" width="63.87699890136719px" x="19.016998291015625px" xml:space="preserve" xmlns="http://www.w3.org/2000/svg" xmlns:xlink="http://www.w3.org/1999/xlink" y="31.537004470825195px" zoomAndPan="magnify"><g><g><path d="M80.713,38.778c0.324-0.371,0.417-0.719,0.419-1.203c0.002-0.365-1.929-0.075-1.932,0.518    c-0.002,0.306-0.036,0.559-0.245,0.797c-0.287,0.329,0.25,0.375,0.468,0.361C79.826,39.226,80.431,39.101,80.713,38.778    L80.713,38.778z" fill="#E2DEB2"/></g></g><g><path d="M29.787,31.538l-0.1,4.74h5.883v11.208L21.915,88.641c-1.138,3.709,1.036,6.771,4.78,6.771h19.812V31.537   L29.787,31.538L29.787,31.538z" fill="#0092AC"/><path d="M71.258,88.642L57.438,47.366l-0.056-11.087h6.125l-0.041-4.74H46.508v63.875h19.971   C70.221,95.413,72.229,92.413,71.258,88.642z" fill="#008AA6"/></g><g><path d="M41.405,54.5l-9.042,27.629c-1.355,3.597-1.043,6.242,1.395,6.242h12.75V54.5H41.405z" fill="#68B6CD"/><path d="M60.656,82.129L52.615,54.5h-6.107v33.871H58.5C62.008,88.371,61.945,85.101,60.656,82.129z" fill="#4CA9C0"/></g></svg>