<?xml version="1.0" ?><svg contentScriptType="text/ecmascript" contentStyleType="text/css" enable-background="new 0 0 136.333 123" height="64.0px" id="Layer_1" preserveAspectRatio="xMidYMid meet" version="1.0" viewBox="37.500999450683594 23.56550407409668 64.0 64.0" width="64.0px" x="37.500999450683594px" xml:space="preserve" xmlns="http://www.w3.org/2000/svg" xmlns:xlink="http://www.w3.org/1999/xlink" y="23.56550407409668px" zoomAndPan="magnify"><path d="M101.5,81.967c0,0.846-0.682,1.533-1.523,1.533H39.024c-0.842,0-1.523-0.688-1.523-1.533V47.164  c0-0.847,0.683-1.533,1.523-1.533l30.477-19l30.477,19c0.843,0,1.523,0.688,1.523,1.533L101.5,81.967L101.5,81.967z" fill="#E38E40"/><path d="M95.5,79.117c0,0.764-0.446,1.383-0.997,1.383h-49.84c-0.55,0-0.997-0.619-0.997-1.383V36.048  c0-0.763,0.447-1.382,0.997-1.382h49.84c0.551,0,0.997,0.619,0.997,1.382V79.117z" fill="#FFFBD7"/><rect fill="#ACC4C0" height="1" width="30" x="53.5" y="42.5"/><rect fill="#ACC4C0" height="1" width="30" x="53.5" y="46.5"/><rect fill="#ACC4C0" height="1" width="30" x="53.5" y="51.5"/><path d="M101.5,82.977c0,0.841-0.682,1.523-1.523,1.523H39.024c-0.842,0-1.523-0.683-1.523-1.523V48.405  c0-0.842,32,16.286,32,16.286s32-17.128,32-16.286L101.5,82.977L101.5,82.977z" fill="#CD9A35"/><path d="M101.5,81.977c0,0.841-0.682,1.523-1.523,1.523H39.024c-0.842,0-1.523-0.683-1.523-1.523V48.5  c0-0.842,32,18.238,32,18.238s32-19.08,32-18.238L101.5,81.977L101.5,81.977z" fill="#FFC965"/></svg>