<?xml version="1.0" ?><svg contentScriptType="text/ecmascript" contentStyleType="text/css" enable-background="new 0 0 136.333 123" height="64.43299865722656px" id="Layer_1" preserveAspectRatio="xMidYMid meet" version="1.0" viewBox="24.799001693725586 27.253007888793945 64.43299865722656 64.43299865722656" width="64.43299865722656px" x="24.799001693725586px" xml:space="preserve" xmlns="http://www.w3.org/2000/svg" xmlns:xlink="http://www.w3.org/1999/xlink" y="27.253007888793945px" zoomAndPan="magnify"><g><path d="M51.094,49.91c-4.473,4.474-10.428,11.438-12.098,14.827c-1.396,3.493-0.005,7.343,2.612,9.987   l43.308-43.307C80.563,27.295,62.763,38.242,51.094,49.91z" fill="#FFC965"/><path d="M84.916,31.418L41.608,74.725c2.653,2.681,6.567,4.124,10.124,2.694   c3.381-1.672,10.332-7.619,14.791-12.078c11.716-11.716,22.709-29.617,18.447-33.878C84.955,31.446,84.934,31.434,84.916,31.418z" fill="#FAAF5A"/></g><g><path d="M62.128,58.026c2.14,0,3.872-1.728,3.872-3.858c0-1.058-0.429-2.016-1.121-2.713l-5.464,5.463   C60.114,57.603,61.07,58.027,62.128,58.026z" fill="#BE8623"/><path d="M62.129,50.309c-2.14,0-3.873,1.729-3.873,3.859c0,1.077,0.445,2.05,1.159,2.75l5.464-5.463   C64.178,50.748,63.205,50.309,62.129,50.309z" fill="#CD9A35"/><path d="M73.19,39.237c-2.162,0-3.915,1.766-3.915,3.945c0,1.074,0.429,2.045,1.12,2.756l5.554-5.554   C75.241,39.676,74.268,39.237,73.19,39.237z" fill="#CD9A35"/><path d="M75.949,40.384l-5.555,5.554c0.712,0.73,1.699,1.186,2.796,1.186c2.161,0,3.916-1.765,3.916-3.942   C77.106,42.087,76.663,41.099,75.949,40.384z" fill="#BE8623"/><path d="M39.722,65.408L47.5,57.63c0.78-0.781,0.781-2.047,0-2.828l-14.85,4.949c-0.781-0.78-2.048-0.78-2.828,0   l-4.243,4.243c-0.78,0.781-0.78,2.048,0,2.828l11.312-1.414C37.674,66.189,38.94,66.189,39.722,65.408z" fill="#CD9A35"/><path d="M58.813,68.943l-7.778,7.778c-0.781,0.781-0.781,2.048,0,2.829l-1.414,11.313   c0.781,0.781,2.047,0.781,2.828,0l4.242-4.243c0.78-0.78,0.78-2.047,0-2.828l4.949-14.849   C60.861,68.163,59.594,68.163,58.813,68.943z" fill="#BE8623"/><path d="M51.742,63.287c0,0-13.553,10.725-14.851,12.021c-1.357,1.585-0.47,3.674-0.051,4.184l16.248-16.248   C52.697,62.909,52.113,62.916,51.742,63.287z" fill="#CD9A35"/><path d="M36.893,79.551c0.392,0.39,2.947,1.296,4.243,0c1.296-1.297,12.021-14.85,12.021-14.85   c0.391-0.391,0.391-1.023,0-1.414c-0.021-0.02-0.046-0.026-0.066-0.044L36.843,79.491C36.859,79.512,36.877,79.535,36.893,79.551z" fill="#BE8623"/></g></svg>