<?xml version="1.0" ?><svg contentScriptType="text/ecmascript" contentStyleType="text/css" enable-background="new 0 0 136.333 123" height="62.23899841308594px" id="Layer_1" preserveAspectRatio="xMidYMid meet" version="1.0" viewBox="33.83300018310547 15.985004425048828 62.23899841308594 62.23899841308594" width="62.23899841308594px" x="33.83300018310547px" xml:space="preserve" xmlns="http://www.w3.org/2000/svg" xmlns:xlink="http://www.w3.org/1999/xlink" y="15.985004425048828px" zoomAndPan="magnify"><g><ellipse cx="62.76" cy="49.167" fill="#CFC89B" rx="28.927" ry="28.875"/><ellipse cx="62.802" cy="49.135" fill="#F1E3CE" rx="24.954" ry="24.969"/><ellipse cx="62.86" cy="49.179" fill="#ACC4C0" rx="20.901" ry="20.925"/><ellipse cx="62.76" cy="49.104" fill="#F1E3CE" rx="17.894" ry="17.938"/><ellipse cx="62.916" cy="49.265" fill="#ACC4C0" rx="13.978" ry="13.915"/><ellipse cx="62.791" cy="49.421" fill="#F1E3CE" rx="10.978" ry="10.953"/><ellipse cx="62.822" cy="49.187" fill="#ACC4C0" rx="4.946" ry="4.918"/><path d="M83.704,69.06c-0.645,0.645-1.796,0.533-2.573-0.244   L62.423,50.109c-0.777-0.778-0.888-1.932-0.244-2.573l0,0c0.645-0.645,1.795-0.533,2.573,0.245l18.706,18.706   C84.237,67.265,84.348,68.417,83.704,69.06L83.704,69.06z" enable-background="new    " fill="#8A9980" opacity="0.5"/><path d="M89.705,22.535c0.78,0.781,0.782,2.046,0.004,2.823L64.002,51.066c-0.777,0.776-2.041,0.775-2.823-0.007   l0,0c-0.779-0.78-0.783-2.045-0.005-2.822l25.707-25.706C87.659,21.751,88.924,21.753,89.705,22.535L89.705,22.535z" fill="#D7B16F"/><path d="M89.705,22.535c0.78,0.781,0.782,2.046,0.004,2.823L64.002,51.066c-0.777,0.776-2.041,0.775-2.823-0.007   l0,0L89.705,22.535L89.705,22.535z" fill="#CD9A35"/><polygon fill="#59938B" points="85.467,23.945 77.035,32.375 76.328,24.597 84.76,16.167  "/><polygon fill="#008A87" points="87.644,35.911 96.072,27.479 88.295,26.773 79.863,35.204  "/></g></svg>