<?xml version="1.0" ?><svg contentScriptType="text/ecmascript" contentStyleType="text/css" enable-background="new 0 0 136.333 123" height="64.0px" id="Layer_1" preserveAspectRatio="xMidYMid meet" version="1.0" viewBox="43.16699981689453 34.500003814697266 64.0 64.0" width="64.0px" x="43.16699981689453px" xml:space="preserve" xmlns="http://www.w3.org/2000/svg" xmlns:xlink="http://www.w3.org/1999/xlink" y="34.500003814697266px" zoomAndPan="magnify"><path d="M59.167,98.5c-1.104,0-2-0.896-2-2v-60c0-1.104,0.896-2,2-2h32c1.104,0,2,0.896,2,2v60c0,1.104-0.896,2-2,2  H59.167z" fill="#30ABB9"/><path d="M93.167,86.5c0,1.104-0.896,2-2,2h-32c-1.104,0-2-0.896-2-2v-44c0-1.104,0.896-2,2-2h32c1.104,0,2,0.896,2,2  V86.5z" fill="#008A87"/><rect fill="#008A87" height="1" width="9" x="70.167" y="37.5"/><circle cx="75.167" cy="93.5" fill="#008A87" r="3"/></svg>