<svg contentScriptType="text/ecmascript" height="62.239" version="1" viewBox="33.83300018310547 15.985004425048828 62.23899841308594 62.23899841308594" width="62.239" x="33.833" xmlns="http://www.w3.org/2000/svg" y="15.985"><ellipse cx="62.76" cy="49.167" fill="#CFC89B" rx="28.927" ry="28.875"/><ellipse cx="62.802" cy="49.135" fill="#F1E3CE" rx="24.954" ry="24.969"/><ellipse cx="62.86" cy="49.179" fill="#ACC4C0" rx="20.901" ry="20.925"/><ellipse cx="62.76" cy="49.104" fill="#F1E3CE" rx="17.894" ry="17.938"/><ellipse cx="62.916" cy="49.265" fill="#ACC4C0" rx="13.978" ry="13.915"/><ellipse cx="62.791" cy="49.421" fill="#F1E3CE" rx="10.978" ry="10.953"/><ellipse cx="62.822" cy="49.187" fill="#ACC4C0" rx="4.946" ry="4.918"/><path d="M83.704 69.06c-.645.645-1.796.533-2.573-.244L62.424 50.11c-.777-.78-.888-1.933-.244-2.574.644-.645 1.794-.533 2.572.245l18.706 18.707c.78.778.89 1.93.246 2.573z" fill="#8A9980" opacity=".5"/><path d="M89.705 22.535c.78.78.782 2.046.004 2.823L64 51.066c-.777.776-2.04.775-2.823-.007-.78-.78-.784-2.046-.006-2.823L86.88 22.53c.78-.78 2.044-.777 2.825.005z" fill="#D7B16F"/><path d="M89.705 22.535c.78.78.782 2.046.004 2.823L64 51.066c-.777.776-2.04.775-2.823-.007l28.525-28.525z" fill="#CD9A35"/><path fill="#59938B" d="M85.467 23.945l-8.432 8.43-.707-7.778 8.432-8.43"/><path fill="#008A87" d="M87.644 35.91l8.428-8.43-7.777-.707-8.432 8.43"/></svg>