<svg contentScriptType="text/ecmascript" height="63.877" version="1" viewBox="19.016998291015625 31.537004470825195 63.87699890136719 63.87699890136719" width="63.877" x="19.017" xmlns="http://www.w3.org/2000/svg" y="31.537"><path d="M80.713 38.778c.324-.37.417-.72.42-1.203 0-.365-1.93-.075-1.933.518-.002.306-.036.56-.245.797-.287.33.25.375.468.36.403-.024 1.008-.15 1.29-.472z" fill="#E2DEB2"/><path d="M29.787 31.538l-.1 4.74h5.883v11.208L21.915 88.64c-1.138 3.71 1.036 6.772 4.78 6.772h19.812V31.537h-16.72z" fill="#0092AC"/><path d="M71.258 88.642l-13.82-41.276-.056-11.087h6.125l-.04-4.74h-16.96v63.874H66.48c3.74 0 5.75-3 4.778-6.772z" fill="#008AA6"/><g><path d="M41.405 54.5l-9.042 27.63c-1.355 3.596-1.043 6.24 1.395 6.24h12.75V54.5h-5.103z" fill="#68B6CD"/><path d="M60.656 82.13l-8.04-27.63h-6.108v33.87H58.5c3.508 0 3.445-3.27 2.156-6.24z" fill="#4CA9C0"/></g></svg>