<svg contentScriptType="text/ecmascript" height="64" version="1" viewBox="43.16699981689453 34.500003814697266 64.0 64.0" width="64" x="43.167" xmlns="http://www.w3.org/2000/svg" y="34.5"><path d="M59.167 98.5c-1.104 0-2-.896-2-2v-60c0-1.104.896-2 2-2h32c1.104 0 2 .896 2 2v60c0 1.104-.896 2-2 2h-32z" fill="#30ABB9"/><path d="M93.167 86.5c0 1.104-.896 2-2 2h-32c-1.104 0-2-.896-2-2v-44c0-1.104.896-2 2-2h32c1.104 0 2 .896 2 2v44zM70.167 37.5h9v1h-9z" fill="#008A87"/><circle cx="75.167" cy="93.5" fill="#008A87" r="3"/></svg>