<svg contentScriptType="text/ecmascript" height="64" version="1" viewBox="37.500999450683594 23.56550407409668 64.0 64.0" width="64" x="37.501" xmlns="http://www.w3.org/2000/svg" y="23.566"><path d="M101.5 81.967c0 .846-.682 1.533-1.523 1.533H39.024c-.842 0-1.523-.688-1.523-1.533V47.164c0-.847.684-1.533 1.524-1.533l30.477-19 30.478 19c.843 0 1.523.69 1.523 1.534v34.803z" fill="#E38E40"/><path d="M95.5 79.117c0 .764-.446 1.383-.997 1.383h-49.84c-.55 0-.997-.62-.997-1.383v-43.07c0-.762.447-1.38.997-1.38h49.84c.55 0 .997.618.997 1.38v43.07z" fill="#FFFBD7"/><path fill="#ACC4C0" d="M53.5 42.5h30v1h-30zM53.5 46.5h30v1h-30zM53.5 51.5h30v1h-30z"/><path d="M101.5 82.977c0 .84-.682 1.523-1.523 1.523H39.024c-.842 0-1.523-.683-1.523-1.523V48.405c0-.842 32 16.286 32 16.286s32-17.127 32-16.285v34.572z" fill="#CD9A35"/><path d="M101.5 81.977c0 .84-.682 1.523-1.523 1.523H39.024c-.842 0-1.523-.683-1.523-1.523V48.5c0-.842 32 18.238 32 18.238s32-19.08 32-18.238v33.477z" fill="#FFC965"/></svg>