<svg contentScriptType="text/ecmascript" height="64.433" version="1" viewBox="24.799001693725586 27.253007888793945 64.43299865722656 64.43299865722656" width="64.433" x="24.799" xmlns="http://www.w3.org/2000/svg" y="27.253"><path d="M51.094 49.91c-4.473 4.474-10.428 11.438-12.098 14.827-1.396 3.493-.005 7.343 2.612 9.987l43.308-43.307c-4.353-4.122-22.153 6.825-33.822 18.493z" fill="#FFC965"/><path d="M84.916 31.418L41.608 74.725c2.653 2.68 6.567 4.124 10.124 2.694 3.38-1.673 10.332-7.62 14.79-12.08C78.24 53.626 89.233 35.725 84.97 31.464c-.015-.017-.036-.03-.054-.045z" fill="#FAAF5A"/><g><path d="M62.128 58.026c2.14 0 3.872-1.728 3.872-3.858 0-1.058-.43-2.016-1.12-2.713l-5.465 5.463c.7.685 1.655 1.11 2.713 1.108z" fill="#BE8623"/><path d="M62.13 50.31c-2.14 0-3.874 1.728-3.874 3.858 0 1.077.445 2.05 1.16 2.75l5.463-5.463c-.702-.707-1.675-1.146-2.75-1.146zM73.19 39.237c-2.162 0-3.915 1.766-3.915 3.945 0 1.074.43 2.045 1.12 2.756l5.554-5.554c-.71-.708-1.682-1.147-2.76-1.147z" fill="#CD9A35"/><path d="M75.95 40.384l-5.556 5.554c.712.73 1.7 1.186 2.796 1.186 2.16 0 3.916-1.765 3.916-3.942 0-1.095-.443-2.083-1.157-2.798z" fill="#BE8623"/><path d="M39.722 65.408L47.5 57.63c.78-.78.78-2.047 0-2.828l-14.85 4.95c-.78-.78-2.048-.78-2.828 0l-4.243 4.242c-.78.78-.78 2.048 0 2.828l11.31-1.414c.784.78 2.05.78 2.832 0z" fill="#CD9A35"/><path d="M58.813 68.943l-7.778 7.778c-.78.782-.78 2.05 0 2.83L49.62 90.863c.782.78 2.048.78 2.83 0l4.24-4.243c.78-.78.78-2.047 0-2.828l4.95-14.85c-.78-.78-2.046-.78-2.827 0z" fill="#BE8623"/><path d="M51.742 63.287s-13.553 10.725-14.85 12.02c-1.358 1.586-.47 3.675-.052 4.185l16.248-16.248c-.39-.335-.975-.328-1.346.043z" fill="#CD9A35"/><path d="M36.893 79.55c.392.39 2.947 1.297 4.243 0 1.296-1.296 12.02-14.85 12.02-14.85.392-.39.392-1.022 0-1.413-.02-.02-.045-.026-.065-.044L36.844 79.49c.016.022.034.045.05.06z" fill="#BE8623"/></g></svg>